<?xml version="1.0" encoding="UTF-8" standalone="no"?>
<!-- Created with Inkscape (http://www.inkscape.org/) -->

<svg
   width="68"
   height="68.000015"
   viewBox="0 0 17.991666 17.991671"
   version="1.1"
   id="svg1"
   xml:space="preserve"
   xmlns="http://www.w3.org/2000/svg"
   xmlns:svg="http://www.w3.org/2000/svg"><defs
     id="defs1" /><g
     id="layer1"
     transform="translate(-87.008332,-67.34024)"><g
       id="g1"
       transform="matrix(0.03320313,0,0,0.03320313,49.377842,97.119597)"><rect
         style="fill:#ececec;stroke-width:0.47625"
         id="rect1"
         width="541.86658"
         height="541.86664"
         x="1133.3417"
         y="-896.88403" /><path
         style="fill:#e50123;stroke:none"
         d="m 1133.3417,-896.88398 v 541.86663 h 541.8666 v -541.86663 h -541.8666 m 230.4521,394.49372 4.6969,-8.73125 8.5114,-19.57916 10.3396,-37.57083 c 4.5442,4.74422 8.2406,9.07593 14.2875,12.09939 25.9469,12.97343 56.7003,-1.64205 72.9629,-22.94731 7.9866,-10.46299 13.1804,-23.22006 16.1094,-35.98333 5.9318,-25.84881 4.5126,-53.62605 -12.6088,-75.14166 -29.675,-37.29117 -88.539,-41.85013 -127.5281,-16.75021 -25.6476,16.51114 -40.4988,44.62896 -39.1687,74.95854 0.4769,10.87601 3.2618,22.33022 9.3647,31.48541 3.7328,5.59973 8.6072,10.29647 14.4582,13.64523 2.779,1.59053 5.8648,3.41336 8.3297,0.37362 2.646,-3.26324 3.9196,-7.32494 4.7406,-11.37301 0.2528,-1.2467 0.9075,-2.70313 0.5012,-3.96875 -1.3843,-4.31195 -5.315,-7.89313 -7.0619,-12.17084 -2.5721,-6.29832 -3.7619,-13.30936 -3.5953,-20.10833 0.1724,-7.04052 1.5195,-14.26615 3.8834,-20.90208 11.4218,-32.063 46.4074,-47.70077 78.6627,-40.30894 5.4615,1.2516 10.7487,3.23782 15.6104,6.02621 27.8493,15.9729 27.3837,52.97325 19.0565,80.05564 -4.9335,16.04541 -14.9673,34.62399 -33.344,37.23071 -14.1801,2.01147 -28.215,-7.30547 -26.6778,-22.67862 1.5507,-15.50797 9.7335,-29.82254 11.9328,-45.24375 1.2193,-8.54906 -1.0002,-18.17011 -9.0675,-22.70843 -15.9525,-8.97423 -30.0552,8.48465 -33.3681,22.44385 -1.6949,7.14139 -1.6432,14.81072 8e-4,21.96041 0.5833,2.53686 1.3248,4.99802 2.3061,7.40833 0.6323,1.55295 1.5847,3.02543 1.3482,4.7625 -0.7227,5.30927 -2.3561,10.64089 -3.5122,15.875 -2.903,13.14339 -5.7407,26.30415 -8.7513,39.42292 -1.4326,6.2427 -3.4267,12.48128 -4.524,18.78541 -1.6971,9.75034 -1.6537,19.76665 -1.6537,29.63333 -15.0485,-5.12255 -29.6416,-16.14791 -40.7458,-27.25208 -10.4622,-10.46218 -19.4565,-22.19593 -26.1282,-35.45416 -19.5284,-38.80732 -19.0962,-86.34434 1.6036,-124.61875 8.9702,-16.58593 21.3238,-31.32289 36.1663,-42.95189 36.4387,-28.54968 86.7441,-36.67512 130.175,-20.4358 42.5399,15.90616 77.6946,52.97118 85.3452,98.57728 3.0441,18.14595 1.9565,37.19553 -2.5029,55.03333 -14.7939,59.17558 -70.2089,102.12916 -130.9965,102.12916 -9.5213,0 -18.9418,-0.62613 -28.3104,-2.43332 -3.5679,-0.68823 -7.4932,-1.15038 -10.8479,-2.59377 z"
         id="path1" /></g></g></svg>
